# xmcd
#
# Track frame offsets: 
#        150
#        25218
#        43340
#        59901
#        80366
#        100824
#        120678
#        139195
#        153783
#        173949
#
# Disc length: 2605 seconds
#
# Revision: 0
# Processed by: cddbd v1.5.2PL0 Copyright (c) Steve Scherf et al.
# Submitted via: ExactAudioCopy v1.0b3
#
DISCID=870a2b0a
DTITLE=Khanh Ly - Tinh Thu Tren Cao
DYEAR=2000
DGENRE=
TTITLE0=Tinh sau quen lang
TTITLE1=Dung hen nha
TTITLE2=Giac mo hoa
TTITLE3=Thu cong vien
TTITLE4=Tinh dai duong
TTITLE5=Khuc du ca
TTITLE6=Loi mon
TTITLE7=Tinh thu tren cao
TTITLE8=Mua hoa tuyet
TTITLE9=Binh Dinh que toi
EXTD=
EXTT0=
EXTT1=
EXTT2=
EXTT3=
EXTT4=
EXTT5=
EXTT6=
EXTT7=
EXTT8=
EXTT9=
PLAYORDER=
